<svg width="16" height="21" viewBox="0 0 16 21" fill="none" xmlns="http://www.w3.org/2000/svg">
<path d="M3.55909 15.9582C3.57972 16.0032 3.59847 16.0613 3.60784 16.1345C3.66597 16.5807 4.00722 16.6782 4.41222 16.6782C4.82284 16.6782 5.33472 16.5882 5.33472 17.1395C5.33284 17.3757 5.22034 17.5501 5.45659 17.6945C5.81284 17.912 6.49534 17.8613 6.84034 17.6345C7.05409 17.4938 7.35409 17.3682 7.21909 17.7676C7.14034 17.9982 6.98659 18.2101 6.87409 18.4276C6.75034 18.6657 6.59472 18.8551 6.40722 19.0463C6.27034 19.187 6.17659 19.3557 6.01909 19.4757C5.61597 19.7813 5.09097 19.877 4.62034 20.0307C3.99034 20.237 3.38847 20.6045 2.71347 20.4151C1.99909 20.2145 1.22097 20.2951 0.517844 20.0645C0.170969 19.9501 -0.0446567 19.7401 0.00784329 19.367C0.0547183 19.0463 0.274093 18.9263 0.566593 18.8626C0.896593 18.7895 1.16659 18.7013 1.31847 18.3713C1.44972 18.092 1.35972 17.6851 1.34097 17.3888C1.31472 16.9857 1.26972 16.5601 1.37284 16.1645C1.45909 15.8382 1.55472 15.512 1.69722 15.2045C1.76284 15.0601 1.83222 14.8838 1.93722 14.7638C2.10034 14.5763 2.30097 14.492 2.52222 14.3926C2.59159 14.5707 2.44347 14.8538 2.41722 15.0338C2.37409 15.3432 2.38347 15.6751 2.69847 15.8007C3.00409 15.917 3.41097 15.647 3.55909 15.9582Z" fill="#4B0082"/>
<path d="M8.59846 7.89576C9.66158 6.67326 10.4453 5.21264 11.4035 3.90389C11.9922 3.10139 12.5341 2.25389 13.0816 1.42701C13.4285 0.903889 13.9272 -0.0129856 14.6622 0.000139393C14.7897 0.00201439 14.906 0.0563891 15.0091 0.129514C15.236 0.290764 15.2341 0.678889 15.1591 0.918889C14.861 1.88451 14.3022 2.80889 13.8335 3.70139C13.6553 4.04264 13.4735 4.38389 13.2841 4.71951C12.731 5.70389 12.1535 6.67514 11.6435 7.68389C11.4447 8.07764 11.2572 8.47514 11.0866 8.88014C10.9797 9.13139 10.8147 9.34514 10.7491 9.60764C10.6816 9.87764 10.0722 9.11827 10.0347 9.05826C9.89596 8.82764 9.76846 8.70576 9.52096 8.62326C9.34283 8.56514 8.38846 8.42826 8.46533 8.12451C8.48596 8.04576 8.53471 7.96889 8.59846 7.89576Z" fill="#894AE2"/>
<path d="M10.5876 9.34549C10.4076 8.96862 10.0589 8.75674 9.75327 8.56924C9.67452 8.52049 9.59577 8.47362 9.52452 8.42487C9.04077 8.09299 8.62639 8.01237 8.29264 8.17174C7.79202 8.41174 7.43764 9.04549 7.15077 9.55549C7.07202 9.69424 7.00077 9.82174 6.93514 9.92674C6.39702 10.7649 5.87764 11.408 4.95889 12.0267L4.88014 12.0774C4.67202 12.2105 4.38702 12.3942 4.36452 12.7261C4.35514 12.8667 4.39452 13.0786 4.64014 13.2867C4.90827 13.5136 5.20264 13.6524 5.48764 13.7855C5.58889 13.8324 5.69202 13.8811 5.79139 13.9336C6.11952 14.1061 6.41764 14.333 6.73452 14.5749L6.92202 14.7155C6.97077 14.7511 7.01952 14.7999 7.07202 14.8467C7.21827 14.9836 7.40014 15.1561 7.63639 15.2217C7.71702 15.2442 7.78827 15.2555 7.85202 15.2555C8.10702 15.2555 8.23452 15.098 8.30389 15.0136L8.33202 14.9799C8.60577 14.6592 8.74077 14.2299 8.85889 13.8511C8.91514 13.6674 8.96952 13.493 9.03327 13.3467C9.13452 13.1161 9.23014 12.8836 9.32577 12.6511C9.53577 12.1374 9.73452 11.6517 9.99139 11.1886C10.0514 11.078 10.1395 10.9636 10.2333 10.8436C10.5089 10.4799 10.8895 9.98112 10.5876 9.34549Z" fill="black"/>
<path d="M8.9323 15.0645C8.7973 15.0645 8.66605 14.9988 8.58168 14.8788C8.4823 14.7307 8.4223 14.5845 8.36793 14.4551C8.31918 14.337 8.27793 14.2357 8.21605 14.1551C7.64043 13.4126 6.94293 12.8988 5.80668 12.3795C5.46731 12.2238 5.15793 12.147 4.89543 12.147C4.66106 12.147 4.47168 11.9576 4.47168 11.7251C4.47168 11.4926 4.66106 11.3032 4.89543 11.3032C5.27981 11.3032 5.70543 11.4082 6.15731 11.6126C7.04043 12.0157 8.05668 12.5726 8.88355 13.6395C9.01668 13.8101 9.08793 13.9826 9.14981 14.1363C9.19293 14.2413 9.23043 14.3313 9.28293 14.4082C9.41418 14.6013 9.36168 14.8638 9.17043 14.9932C9.09543 15.0401 9.01293 15.0645 8.9323 15.0645Z" fill="#9747FF"/>
</svg>
