<svg width="168" height="159" viewBox="0 0 168 159" fill="none" xmlns="http://www.w3.org/2000/svg">
<g filter="url(#filter0_d_1647_1592)">
<mask id="mask0_1647_1592" style="mask-type:luminance" maskUnits="userSpaceOnUse" x="68" y="116" width="32" height="29">
<path d="M80.124 143.313C78.1196 145.07 71.128 145.311 68.6172 139.72L77.7295 116.855L99.2 120.235C99.2 120.235 80.6822 142.824 80.124 143.313Z" fill="white"/>
</mask>
<g mask="url(#mask0_1647_1592)">
<path d="M109.549 40.1704C105.144 50.0328 99.0189 65.5052 92.6825 83.0618C81.6584 113.61 73.4168 138.626 75.9643 139.544C78.5118 140.464 88.1457 115.951 99.1697 85.4024C105.506 67.8458 110.672 52.0285 113.58 41.6252L109.547 40.1704H109.549Z" fill="url(#paint0_linear_1647_1592)"/>
</g>
<mask id="mask1_1647_1592" style="mask-type:luminance" maskUnits="userSpaceOnUse" x="78" y="117" width="21" height="35">
<path d="M97.075 150.878C95.0707 152.635 88.0791 152.876 85.5682 147.286L78.5874 117.155C87.023 118.757 94.4112 119.308 98.3789 118.961C98.3789 118.961 97.6311 150.389 97.0729 150.878H97.075Z" fill="white"/>
</mask>
<g mask="url(#mask1_1647_1592)">
<path d="M96.4065 37.2563C94.6931 47.9205 92.7642 64.449 91.1672 83.0465C88.3912 115.405 86.8782 141.699 89.5766 141.93C92.275 142.16 95.2621 115.994 98.0402 83.6349C99.6351 65.0374 100.549 48.4226 100.678 37.6227L96.4065 37.2563Z" fill="url(#paint1_linear_1647_1592)"/>
</g>
<path d="M121.183 80.0592C132.078 79.2295 138.692 67.4576 133.559 57.815C126.875 45.2629 114.146 37.1205 98.6245 33.3574C70.9685 26.6546 44.0086 39.9438 38.4115 63.0393C32.8143 86.1349 50.6963 110.293 78.3523 116.996C89.2384 119.634 101.4 119.963 112.664 116.517C119.638 114.384 121.66 105.444 116.248 100.556C111.541 96.3033 108.493 91.7256 110.207 87.1866C111.959 82.5399 115.933 80.458 121.183 80.0592ZM92.8312 94.5144C88.6975 93.5122 86.0832 89.6587 86.9905 85.9086C87.9 82.1585 91.9885 79.9299 96.1222 80.9321C100.256 81.9343 102.87 85.7879 101.963 89.538C101.053 93.2881 96.9649 95.5166 92.8312 94.5144Z" fill="url(#paint2_linear_1647_1592)"/>
<path d="M121.979 78.4992C132.873 77.6694 139.488 65.8975 134.354 56.255C127.671 43.7029 114.942 35.5604 99.4199 31.7973C71.7639 25.0946 44.804 38.3837 39.2069 61.4793C33.6097 84.5748 51.4917 108.733 79.1477 115.436C90.0338 118.074 102.196 118.403 113.459 114.957C120.433 112.823 122.455 103.884 117.043 98.9955C112.336 94.7432 109.289 90.1655 111.002 85.6266C112.754 80.9799 116.729 78.8979 121.979 78.4992ZM93.6245 92.9522C89.4907 91.95 86.8764 88.0965 87.7838 84.3463C88.6933 80.5962 92.7818 78.3677 96.9155 79.3699C101.049 80.3721 103.664 84.2257 102.756 87.9758C101.847 91.7259 97.7582 93.9544 93.6245 92.9522Z" fill="url(#paint3_linear_1647_1592)"/>
<path d="M50.1381 71.6194C48.0539 75.4234 50.8924 80.2554 56.6167 82.8245C59.9789 84.3331 65.0652 85.2922 65.6407 82.6434C66.4769 78.7942 70.2356 82.0895 71.1021 78.5032C72.4211 73.0418 66.6062 68.6689 61.6341 70.1495C56.9227 71.5547 52.8407 66.686 50.1381 71.6194Z" fill="url(#paint4_linear_1647_1592)"/>
<g style="mix-blend-mode:screen" opacity="0.58">
<path d="M51.007 71.1946C49.7031 73.5718 53.1062 76.212 56.686 77.8176C58.7896 78.7616 61.8004 75.6322 63.4018 76.1926C65.8695 77.0547 66.945 73.408 66.3135 72.0244C64.9988 69.1363 63.5828 70.0868 60.4728 71.0136C57.5266 71.8907 52.6967 68.1105 51.007 71.1968V71.1946Z" fill="url(#paint5_linear_1647_1592)"/>
</g>
<path d="M63.6236 93.0404C61.5072 96.9026 64.3909 101.812 70.2035 104.422C73.6196 105.955 76.7705 103.332 79.3698 104.239C83.3785 105.64 84.7729 99.8445 84.1005 97.4672C83.2104 94.3141 80.3504 90.0424 75.2985 91.5489C70.5139 92.9757 66.3672 88.0294 63.6214 93.0425L63.6236 93.0404Z" fill="url(#paint6_linear_1647_1592)"/>
<g style="mix-blend-mode:screen" opacity="0.58">
<path d="M64.7162 92.9199C63.3929 95.3359 66.8478 98.0149 70.4836 99.6464C72.6195 100.605 75.6799 97.4265 77.305 97.9955C79.8115 98.8726 80.9042 95.1678 80.2641 93.7604C78.9279 90.8271 77.4903 91.7927 74.3307 92.7345C71.3393 93.6268 66.4318 89.7862 64.7162 92.9199Z" fill="url(#paint7_linear_1647_1592)"/>
</g>
<path d="M52.3733 50.4184C51.2008 52.5586 51.315 55.2504 53.175 57.229C55.1902 59.3691 59.0243 56.7268 59.8778 59.3195C61.8886 65.4318 65.2896 60.5265 67.8436 61.4187C71.7812 62.7959 71.5506 58.6212 73.4062 57.0587C77.7189 53.4271 71.3286 48.8903 66.6021 51.0025C65.5137 51.4896 63.0137 44.9225 59.7011 47.8364C57.035 50.1835 53.9681 47.5067 52.3733 50.4184Z" fill="url(#paint8_linear_1647_1592)"/>
<path style="mix-blend-mode:screen" d="M57.938 50.2242C56.9207 51.0023 53.815 53.0584 54.9918 54.1317C56.2633 55.2955 63.2269 55.0412 63.8024 56.4184C65.1602 59.6599 67.1214 57.1684 68.6926 57.6921C71.1172 58.4982 70.8866 56.3085 71.9815 55.5326C74.5247 53.7265 70.4793 51.0605 67.7098 52.2157C65.3757 53.1877 62.8605 46.4547 57.938 50.2264V50.2242Z" fill="url(#paint9_linear_1647_1592)"/>
<path d="M102.596 49.6815C103.562 47.44 105.756 45.8753 108.459 46.1253C111.383 46.3969 111.659 51.0457 114.23 50.1233C120.287 47.9508 118.511 53.6471 120.784 55.1127C124.291 57.3714 120.858 59.7551 120.767 62.1819C120.556 67.8156 113.047 65.5656 111.808 60.5396C111.521 59.3822 104.808 61.4491 105.068 57.0459C105.28 53.5006 101.284 52.7268 102.596 49.6815Z" fill="url(#paint10_linear_1647_1592)"/>
<path style="mix-blend-mode:screen" d="M104.42 48.7393C104.409 47.4591 106.53 46.2758 108.101 46.5409C109.802 46.8276 112.381 51.0669 113.808 50.6294C119.416 48.9138 117.955 54.2373 119.334 55.1554C121.461 56.5714 119.593 57.7352 119.653 59.0758C119.793 62.1923 115.203 60.6426 114.412 57.7482C113.744 55.3106 104.476 54.9377 104.422 48.7371L104.42 48.7393Z" fill="url(#paint11_linear_1647_1592)"/>
<path d="M75.0313 40.2174C73.0183 43.8921 75.7597 48.5603 81.2901 51.041C84.538 52.498 87.536 50.0022 90.008 50.8664C93.8206 52.1984 95.1461 46.6874 94.5082 44.4266C93.6611 41.4287 90.9412 37.366 86.1372 38.7971C81.5875 40.1549 77.6434 35.45 75.0313 40.2174Z" fill="url(#paint12_linear_1647_1592)"/>
<g style="mix-blend-mode:screen" opacity="0.58">
<path d="M75.7748 39.8213C74.5162 42.1188 77.8029 44.6684 81.2599 46.218C83.2923 47.1297 86.2019 44.108 87.7472 44.6469C90.1309 45.4809 91.1697 41.9571 90.5619 40.6187C89.2925 37.8277 87.9239 38.748 84.9195 39.6424C82.0746 40.4916 77.4085 36.8384 75.7748 39.8191V39.8213Z" fill="url(#paint13_linear_1647_1592)"/>
</g>
<path style="mix-blend-mode:screen" d="M92.1695 41.5454C92.1695 41.5454 94.6502 43.6209 94.0036 46.7654C93.357 49.9078 92.3462 46.8667 91.8161 45.9421C91.2859 45.0175 90.913 41.1683 92.1695 41.5454Z" fill="url(#paint14_linear_1647_1592)"/>
<path d="M44.1749 27.1418C46.4681 25.7086 48.5652 25.3163 51.604 27.7733C54.6451 30.2302 60.5418 25.2215 54.3778 23.0404C50.7807 21.7688 52.617 16.5639 51.3389 13.0983C50.0609 9.63264 45.7483 8.2576 44.8969 10.831C43.9077 13.8203 50.7204 16.9669 46.1815 16.9648C39.2955 16.9626 45.3926 22.3615 42.9033 23.327C40.4658 24.271 40.4938 25.1482 42.1964 26.4888C43.8991 27.8293 44.1749 27.1396 44.1749 27.1396V27.1418Z" fill="url(#paint15_linear_1647_1592)"/>
<path d="M55.9148 19.4261C54.9234 19.5597 53.4901 19.3722 53.3048 17.9842C53.1194 16.5984 54.2509 14.538 55.2423 14.4044C56.2337 14.2707 57.1864 15.288 57.3739 16.6738C57.5592 18.0597 56.9062 19.2925 55.9148 19.4239V19.4261Z" fill="url(#paint16_linear_1647_1592)"/>
<mask id="mask2_1647_1592" style="mask-type:luminance" maskUnits="userSpaceOnUse" x="88" y="12" width="48" height="82">
<path d="M99.6679 92.0897C97.6636 93.8462 90.672 94.0876 88.1611 88.4969L112.386 12.833L135.329 19.219C135.329 19.219 100.226 91.6005 99.6679 92.0897Z" fill="white"/>
</mask>
<g mask="url(#mask2_1647_1592)">
<path d="M110.355 39.9547C108.258 37.2024 107.129 32.9265 112.34 28.7475C117.55 24.5684 117.513 18.689 117.513 18.689C117.513 18.689 126.188 34.78 113.153 40.9633L110.358 39.9547H110.355Z" fill="url(#paint17_linear_1647_1592)"/>
<mask id="mask3_1647_1592" style="mask-type:luminance" maskUnits="userSpaceOnUse" x="108" y="18" width="13" height="23">
<path d="M110.355 39.9547C108.258 37.2024 107.129 32.9265 112.34 28.7475C117.55 24.5684 117.513 18.689 117.513 18.689C117.513 18.689 126.188 34.78 113.153 40.9633L110.358 39.9547H110.355Z" fill="white"/>
</mask>
<g mask="url(#mask3_1647_1592)">
<path style="mix-blend-mode:screen" d="M118.343 22.0962C118.343 22.0962 122.44 33.2905 114.155 39.6959C114.155 39.6959 120.464 33.6116 118.343 22.0962Z" fill="url(#paint18_linear_1647_1592)"/>
<path style="mix-blend-mode:screen" d="M117.886 22.9307C117.886 22.9307 119.343 28.627 115.983 34.9418C115.983 34.9418 118.472 28.045 117.886 22.9307Z" fill="url(#paint19_linear_1647_1592)"/>
</g>
<path d="M109.549 40.1704C105.144 50.0328 99.0189 65.5052 92.6825 83.0618C81.6584 113.61 73.4168 138.626 75.9643 139.544C78.5118 140.464 88.1457 115.951 99.1697 85.4024C105.506 67.8458 110.672 52.0285 113.58 41.6252L109.547 40.1704H109.549Z" fill="url(#paint20_linear_1647_1592)"/>
<path d="M109.28 39.9912C105.935 46.9225 103.006 54.1813 98.0405 67.9403L104.692 70.3413C109.692 56.4852 112.039 49.1251 113.89 41.6551L109.28 39.9912Z" fill="url(#paint21_linear_1647_1592)"/>
<path d="M114.087 40.7641L109.716 39.187C109.464 39.0961 109.186 39.2267 109.095 39.4786L108.933 39.9287C108.842 40.1806 108.972 40.4585 109.224 40.5494L113.595 42.1265C113.847 42.2174 114.125 42.0868 114.216 41.8349L114.378 41.3848C114.469 41.1329 114.339 40.855 114.087 40.7641Z" fill="url(#paint22_linear_1647_1592)"/>
<path d="M98.7957 66.2669L105.2 68.5777C105.388 68.6457 105.486 68.8526 105.418 69.0411L105.045 70.0751C104.977 70.2636 104.77 70.3608 104.581 70.2928L98.1768 67.982C97.9883 67.914 97.8911 67.7071 97.9591 67.5186L98.3322 66.4846C98.4002 66.2961 98.6071 66.1989 98.7957 66.2669Z" fill="url(#paint23_linear_1647_1592)"/>
<path style="mix-blend-mode:screen" opacity="0.82" d="M101.177 67.6776L99.668 66.8759L109.931 40.7285L111.44 41.5303L101.177 67.6776Z" fill="url(#paint24_linear_1647_1592)"/>
</g>
<mask id="mask4_1647_1592" style="mask-type:luminance" maskUnits="userSpaceOnUse" x="81" y="10" width="55" height="84">
<path d="M99.668 92.09C97.6636 93.8465 90.672 94.0879 88.1611 88.4972L81.689 10.3311L135.326 19.2193C135.326 19.2193 100.224 91.6007 99.6658 92.09H99.668Z" fill="white"/>
</mask>
<g mask="url(#mask4_1647_1592)">
<path d="M105.824 29.5364L95.6963 28.2605C96.2416 23.9392 96.7243 20.1051 98.0972 16.3377C100.964 16.0317 103.737 16.3765 106.421 17.3873C106.632 21.4887 106.307 25.4953 105.826 29.5385L105.824 29.5364Z" fill="url(#paint25_linear_1647_1592)"/>
<mask id="mask5_1647_1592" style="mask-type:luminance" maskUnits="userSpaceOnUse" x="95" y="16" width="12" height="14">
<path d="M105.824 29.5364L95.6963 28.2605C96.2416 23.9392 96.7243 20.1051 98.0972 16.3377C100.964 16.0317 103.737 16.3765 106.421 17.3873C106.632 21.4887 106.307 25.4953 105.826 29.5385L105.824 29.5364Z" fill="white"/>
</mask>
<g mask="url(#mask5_1647_1592)">
<path style="mix-blend-mode:screen" d="M105.401 16.4971C105.401 16.4971 107.196 21.8938 104.39 28.2151C104.39 28.2151 106.317 21.3895 105.401 16.4971Z" fill="url(#paint26_linear_1647_1592)"/>
<path style="mix-blend-mode:screen" d="M104.629 15.6284C104.629 15.6284 106.425 21.0251 103.619 27.3464C103.619 27.3464 105.545 20.5208 104.629 15.6284Z" fill="url(#paint27_linear_1647_1592)"/>
<path style="mix-blend-mode:screen" opacity="0.49" d="M103.681 13.9087C103.681 13.9087 105.477 19.3054 102.67 25.6267C102.67 25.6267 104.597 18.8011 103.681 13.9087Z" fill="url(#paint28_linear_1647_1592)"/>
</g>
<path d="M98.2006 32.6421C96.1359 42.8838 93.6336 58.7808 91.3771 76.693C87.4503 107.858 84.976 133.212 87.5753 133.54C90.1745 133.867 94.069 108.692 97.9958 77.5271C100.252 59.617 101.774 43.595 102.313 33.1615L98.2006 32.6442V32.6421Z" fill="url(#paint29_linear_1647_1592)"/>
<path d="M94.9804 32.1611C93.877 38.1764 94.9955 47.2521 93.2261 61.287L100.011 62.1426C101.791 48.0064 105.127 39.8402 105.537 33.4909L94.9804 32.1611Z" fill="url(#paint30_linear_1647_1592)"/>
<path d="M100.294 59.6188L93.5901 58.7743C93.3551 58.7447 93.1406 58.9112 93.1109 59.1462L92.9008 60.8141C92.8712 61.0492 93.0377 61.2637 93.2728 61.2933L99.9764 62.1378C100.211 62.1674 100.426 62.0009 100.456 61.7658L100.666 60.0979C100.695 59.8629 100.529 59.6484 100.294 59.6188Z" fill="url(#paint31_linear_1647_1592)"/>
<path d="M100.611 57.0983L93.907 56.2538C93.672 56.2242 93.4574 56.3907 93.4278 56.6257L93.2177 58.2936C93.1881 58.5286 93.3546 58.7432 93.5896 58.7728L100.293 59.6173C100.528 59.6469 100.743 59.4804 100.772 59.2453L100.983 57.5774C101.012 57.3424 100.846 57.1279 100.611 57.0983Z" fill="url(#paint32_linear_1647_1592)"/>
<path d="M95.9856 28.0285L105.644 29.2453C105.903 29.2779 106.088 29.5162 106.056 29.775L105.587 33.4957L94.9872 32.1604L95.4559 28.4397C95.4885 28.1809 95.7268 27.9959 95.9856 28.0285Z" fill="url(#paint33_linear_1647_1592)"/>
<path style="mix-blend-mode:screen" opacity="0.58" d="M97.5882 58.2697L94.3101 58.1167L96.1657 30.312L99.4417 30.465L97.5882 58.2697Z" fill="url(#paint34_linear_1647_1592)"/>
</g>
<path d="M25.1914 74.0677L27.1332 71.1128C28.338 69.2787 31.1765 70.6085 30.5385 72.7077L30.0751 74.2336C29.7044 75.4535 30.6182 76.6841 31.8941 76.6841H32.0989C34.2908 76.6841 34.7412 79.7812 32.6399 80.4062L31.2196 80.8286C30.0126 81.1886 29.4824 82.6024 30.1549 83.6671L30.823 84.7231C31.961 86.5206 29.7346 88.5465 28.0535 87.2405L26.2453 85.8374C25.4371 85.2102 24.2775 85.3352 23.6223 86.1197L22.0878 87.956C20.6826 89.6371 18.0187 87.9991 18.8851 85.9883C19.3377 84.9387 18.7644 83.7296 17.6674 83.4128L14.6048 82.527C12.6048 81.9494 12.8569 79.0398 14.926 78.8135L16.1415 78.6798C17.5122 78.529 18.2709 77.0139 17.5704 75.8263L16.9519 74.7789C15.87 72.9469 18.1588 70.9921 19.799 72.3499L22.3895 74.4922C23.2624 75.2142 24.5663 75.0181 25.187 74.072L25.1914 74.0677Z" fill="url(#paint35_linear_1647_1592)"/>
<path d="M22.7817 71.1086C22.7817 71.9384 23.4542 72.6108 24.2839 72.6108C25.1137 72.6108 25.7861 71.9384 25.7861 71.1086C25.7861 70.2789 25.1137 69.6064 24.2839 69.6064C23.4542 69.6064 22.7817 70.2789 22.7817 71.1086Z" fill="url(#paint36_linear_1647_1592)"/>
<path d="M31.5299 82.6329C31.6225 82.3419 32.3812 82.3268 33.2217 82.5984C34.0623 82.87 34.6679 83.3247 34.5752 83.6157C34.4825 83.9066 33.7239 83.9217 32.8834 83.6502C32.0428 83.3786 31.4372 82.9239 31.5299 82.6329Z" fill="url(#paint37_linear_1647_1592)"/>
<g opacity="0.5">
<path d="M39.9483 51.4404L40.9166 52.9138C41.5174 53.8283 42.9327 53.1652 42.6146 52.1185L42.3836 51.3576C42.1987 50.7493 42.6544 50.1357 43.2906 50.1357H43.3927C44.4856 50.1357 44.7103 48.5914 43.6624 48.2797L42.9542 48.0691C42.3524 47.8896 42.088 47.1846 42.4233 46.6537L42.7565 46.1271C43.3239 45.2308 42.2138 44.2206 41.3755 44.8719L40.4738 45.5715C40.0708 45.8842 39.4926 45.8219 39.1659 45.4307L38.4008 44.5151C37.7001 43.6768 36.3718 44.4936 36.8038 45.4963C37.0295 46.0196 36.7436 46.6225 36.1966 46.7805L34.6694 47.2222C33.6721 47.5102 33.7979 48.9611 34.8296 49.0739L35.4357 49.1405C36.1192 49.2158 36.4975 49.9713 36.1482 50.5634L35.8398 51.0857C35.3003 51.9992 36.4416 52.974 37.2594 52.2969L38.5512 51.2287C38.9865 50.8686 39.6367 50.9664 39.9462 51.4382L39.9483 51.4404Z" fill="url(#paint38_linear_1647_1592)"/>
<path d="M38.7466 52.916C38.7466 52.5022 39.0819 52.1669 39.4956 52.1669C39.9094 52.1669 40.2447 52.5022 40.2447 52.916C40.2447 53.3297 39.9094 53.665 39.4956 53.665C39.0819 53.665 38.7466 53.3297 38.7466 52.916Z" fill="url(#paint39_linear_1647_1592)"/>
<path d="M43.1092 47.1697C43.1554 47.3148 43.5337 47.3223 43.9528 47.1869C44.3719 47.0515 44.6739 46.8247 44.6277 46.6796C44.5815 46.5346 44.2032 46.527 43.7841 46.6625C43.3649 46.7979 43.063 47.0246 43.1092 47.1697Z" fill="url(#paint40_linear_1647_1592)"/>
</g>
<path d="M142.376 21.5207L144.938 17.6219C146.527 15.2037 150.27 16.9559 149.432 19.7254L148.822 21.7384C148.335 23.3484 149.537 24.9713 151.221 24.9713H151.492C154.382 24.9713 154.977 29.0576 152.206 29.8809L150.333 30.437C148.74 30.9111 148.04 32.7754 148.93 34.1806L149.813 35.575C151.316 37.948 148.378 40.6183 146.158 38.8963L143.772 37.0449C142.705 36.2173 141.177 36.3832 140.311 37.4178L138.287 39.8403C136.434 42.058 132.921 39.8984 134.061 37.2432C134.656 35.8574 133.903 34.2647 132.455 33.8444L128.416 32.6762C125.778 31.9133 126.11 28.077 128.839 27.7774L130.442 27.6007C132.25 27.4024 133.252 25.4023 132.328 23.8355L131.513 22.454C130.086 20.0358 133.106 17.4603 135.27 19.2491L138.688 22.0746C139.839 23.0251 141.561 22.7665 142.38 21.5207H142.376Z" fill="url(#paint41_linear_1647_1592)"/>
<path opacity="0.5" d="M140.469 86.6595L141.685 84.7328C142.438 83.5378 144.215 84.4037 143.817 85.7723L143.528 86.767C143.296 87.5626 143.867 88.3646 144.666 88.3646H144.795C146.166 88.3646 146.448 90.384 145.133 90.7908L144.244 91.0656C143.489 91.2999 143.156 92.2212 143.579 92.9156L143.998 93.6047C144.711 94.7774 143.317 96.097 142.263 95.246L141.131 94.3311C140.625 93.9221 139.9 94.0041 139.489 94.5154L138.528 95.7125C137.649 96.8084 135.982 95.7412 136.523 94.4291C136.805 93.7443 136.448 92.9572 135.761 92.7495L133.844 92.1722C132.592 91.7952 132.75 89.8994 134.045 89.7513L134.806 89.664C135.664 89.566 136.139 88.5776 135.701 87.8033L135.314 87.1206C134.637 85.9256 136.07 84.6529 137.097 85.5369L138.719 86.9332C139.265 87.4029 140.082 87.2751 140.471 86.6595H140.469Z" fill="url(#paint42_linear_1647_1592)"/>
<path d="M139.194 17.6174C139.194 18.7122 140.082 19.598 141.175 19.598C142.268 19.598 143.156 18.7101 143.156 17.6174C143.156 16.5247 142.268 15.6367 141.175 15.6367C140.082 15.6367 139.194 16.5247 139.194 17.6174Z" fill="url(#paint43_linear_1647_1592)"/>
<path d="M150.738 32.8183C150.861 32.4346 151.861 32.4152 152.971 32.773C154.081 33.1308 154.88 33.7321 154.755 34.1157C154.632 34.4994 153.632 34.5188 152.522 34.161C151.413 33.8032 150.613 33.2019 150.738 32.8183Z" fill="url(#paint44_linear_1647_1592)"/>
<path d="M125.427 117.681L125.13 114.063C124.947 111.819 128.08 111.099 128.893 113.201L129.484 114.726C129.956 115.946 131.473 116.367 132.503 115.561L132.669 115.431C134.441 114.045 136.764 116.267 135.458 118.099L134.576 119.339C133.826 120.393 134.292 121.871 135.51 122.306L136.719 122.738C138.777 123.472 138.253 126.518 136.068 126.524L133.719 126.531C132.669 126.535 131.809 127.367 131.775 128.417L131.695 130.871C131.622 133.119 128.432 133.477 127.861 131.302C127.563 130.167 126.337 129.552 125.249 129.988L122.212 131.208C120.229 132.003 118.593 129.492 120.123 128.001L121.022 127.126C122.037 126.136 121.692 124.432 120.376 123.914L119.214 123.457C117.181 122.658 117.798 119.632 119.981 119.692L123.429 119.789C124.591 119.821 125.522 118.839 125.427 117.681Z" fill="url(#paint45_linear_1647_1592)"/>
<path d="M121.608 116.813C122.132 117.483 123.102 117.604 123.772 117.078C124.443 116.554 124.563 115.584 124.037 114.914C123.514 114.244 122.544 114.123 121.873 114.649C121.203 115.173 121.083 116.142 121.608 116.813Z" fill="url(#paint46_linear_1647_1592)"/>
<path d="M135.967 120.604C135.859 120.308 136.462 119.817 137.314 119.507C138.165 119.194 138.943 119.179 139.051 119.474C139.158 119.77 138.555 120.261 137.704 120.571C136.852 120.884 136.074 120.899 135.967 120.604Z" fill="url(#paint47_linear_1647_1592)"/>
<g opacity="0.5">
<path d="M50.6362 117.712L50.4541 115.496C50.3419 114.122 52.2605 113.682 52.758 114.968L53.1195 115.903C53.4085 116.649 54.3375 116.907 54.9682 116.413L55.0698 116.334C56.1545 115.486 57.5769 116.846 56.7773 117.968L56.2376 118.726C55.7784 119.372 56.0634 120.277 56.809 120.543L57.5492 120.807C58.8094 121.257 58.4887 123.122 57.1507 123.126L55.7124 123.13C55.0698 123.132 54.5433 123.642 54.5222 124.284L54.4734 125.787C54.4285 127.163 52.4756 127.382 52.1259 126.051C51.9438 125.356 51.193 124.98 50.5267 125.246L48.6674 125.993C47.4535 126.48 46.4519 124.943 47.3888 124.03L47.939 123.494C48.5605 122.888 48.3494 121.844 47.5432 121.528L46.832 121.248C45.5876 120.758 45.965 118.906 47.3017 118.943L49.413 119.002C50.1242 119.022 50.6942 118.42 50.6362 117.712Z" fill="url(#paint48_linear_1647_1592)"/>
<path d="M48.2978 117.18C48.6184 117.591 49.2122 117.664 49.6226 117.342C50.0329 117.022 50.1068 116.428 49.7849 116.018C49.4642 115.607 48.8704 115.533 48.4601 115.855C48.0497 116.176 47.9758 116.77 48.2978 117.18Z" fill="url(#paint49_linear_1647_1592)"/>
<path d="M57.0887 119.5C57.0227 119.32 57.3922 119.019 57.9134 118.829C58.4346 118.638 58.911 118.628 58.9769 118.809C59.0429 118.99 58.6734 119.291 58.1522 119.481C57.631 119.672 57.1547 119.681 57.0887 119.5Z" fill="url(#paint50_linear_1647_1592)"/>
</g>
</g>
<defs>
<filter id="filter0_d_1647_1592" x="0.231934" y="0.5" width="167.536" height="158.431" filterUnits="userSpaceOnUse" color-interpolation-filters="sRGB">
<feFlood flood-opacity="0" result="BackgroundImageFix"/>
<feColorMatrix in="SourceAlpha" type="matrix" values="0 0 0 0 0 0 0 0 0 0 0 0 0 0 0 0 0 0 127 0" result="hardAlpha"/>
<feOffset dy="4"/>
<feGaussianBlur stdDeviation="6.5"/>
<feComposite in2="hardAlpha" operator="out"/>
<feColorMatrix type="matrix" values="0 0 0 0 1 0 0 0 0 1 0 0 0 0 1 0 0 0 0.25 0"/>
<feBlend mode="normal" in2="BackgroundImageFix" result="effect1_dropShadow_1647_1592"/>
<feBlend mode="normal" in="SourceGraphic" in2="effect1_dropShadow_1647_1592" result="shape"/>
</filter>
<linearGradient id="paint0_linear_1647_1592" x1="81.0549" y1="122.065" x2="64.7204" y2="163.342" gradientUnits="userSpaceOnUse">
<stop stop-color="#E38460"/>
<stop offset="1" stop-color="#F3D398"/>
</linearGradient>
<linearGradient id="paint1_linear_1647_1592" x1="89.9894" y1="123.728" x2="84.8465" y2="167.822" gradientUnits="userSpaceOnUse">
<stop stop-color="#E38460"/>
<stop offset="1" stop-color="#F3D398"/>
</linearGradient>
<linearGradient id="paint2_linear_1647_1592" x1="96.5885" y1="70.2547" x2="-7.7218" y2="137.612" gradientUnits="userSpaceOnUse">
<stop stop-color="#E38460"/>
<stop offset="1" stop-color="#F3D398"/>
</linearGradient>
<linearGradient id="paint3_linear_1647_1592" x1="41.6732" y1="108.471" x2="126.633" y2="46.2554" gradientUnits="userSpaceOnUse">
<stop stop-color="white"/>
<stop offset="1" stop-color="#F3D398"/>
</linearGradient>
<linearGradient id="paint4_linear_1647_1592" x1="58.8659" y1="84.0248" x2="62.5399" y2="63.6171" gradientUnits="userSpaceOnUse">
<stop offset="0.08" stop-color="#EAAC64"/>
<stop offset="0.52" stop-color="#F6E251"/>
</linearGradient>
<linearGradient id="paint5_linear_1647_1592" x1="57.6227" y1="78.1926" x2="59.8782" y2="65.6619" gradientUnits="userSpaceOnUse">
<stop offset="0.08"/>
<stop offset="0.11" stop-color="#161616"/>
<stop offset="0.2" stop-color="#535353"/>
<stop offset="0.28" stop-color="#878787"/>
<stop offset="0.37" stop-color="#B2B2B2"/>
<stop offset="0.45" stop-color="#D3D3D3"/>
<stop offset="0.53" stop-color="#EBEBEB"/>
<stop offset="0.6" stop-color="#FAFAFA"/>
<stop offset="0.66" stop-color="white"/>
<stop offset="0.77" stop-color="#FCFCFC"/>
<stop offset="0.82" stop-color="#F5F5F5"/>
<stop offset="0.85" stop-color="#E9E9E9"/>
<stop offset="0.88" stop-color="#D7D7D7"/>
<stop offset="0.91" stop-color="#C0C0C0"/>
<stop offset="0.93" stop-color="#A4A4A4"/>
<stop offset="0.95" stop-color="#828282"/>
<stop offset="0.97" stop-color="#5B5B5B"/>
<stop offset="0.98" stop-color="#303030"/>
<stop offset="1"/>
</linearGradient>
<linearGradient id="paint6_linear_1647_1592" x1="70.9021" y1="103.24" x2="77.9885" y2="88.29" gradientUnits="userSpaceOnUse">
<stop offset="0.08" stop-color="#E38460"/>
<stop offset="0.7" stop-color="#E17560"/>
</linearGradient>
<linearGradient id="paint7_linear_1647_1592" x1="72.5897" y1="90.7565" x2="72.2739" y2="98.3661" gradientUnits="userSpaceOnUse">
<stop offset="0.26" stop-color="white"/>
<stop offset="0.5" stop-color="#A1A1A1"/>
<stop offset="0.75" stop-color="#4A4A4A"/>
<stop offset="0.92" stop-color="#141414"/>
<stop offset="1"/>
</linearGradient>
<linearGradient id="paint8_linear_1647_1592" x1="60.843" y1="58.7509" x2="67.1792" y2="44.8827" gradientUnits="userSpaceOnUse">
<stop offset="0.08" stop-color="#5574BA"/>
<stop offset="0.2" stop-color="#5D7CC0"/>
<stop offset="0.4" stop-color="#7595D1"/>
<stop offset="0.65" stop-color="#9CBCEE"/>
<stop offset="0.75" stop-color="#AFD0FC"/>
</linearGradient>
<linearGradient id="paint9_linear_1647_1592" x1="63.216" y1="55.6467" x2="65.0514" y2="49.8289" gradientUnits="userSpaceOnUse">
<stop offset="0.08"/>
<stop offset="0.16" stop-color="#060606"/>
<stop offset="0.27" stop-color="#191919"/>
<stop offset="0.41" stop-color="#393939"/>
<stop offset="0.56" stop-color="#646464"/>
<stop offset="0.73" stop-color="#9C9C9C"/>
<stop offset="0.9" stop-color="#DFDFDF"/>
<stop offset="0.98" stop-color="white"/>
</linearGradient>
<linearGradient id="paint10_linear_1647_1592" x1="107.958" y1="60.6821" x2="121.022" y2="45.752" gradientUnits="userSpaceOnUse">
<stop offset="0.08" stop-color="#4955B7"/>
<stop offset="0.37" stop-color="#8E7BD8"/>
<stop offset="0.61" stop-color="#C297F1"/>
<stop offset="0.72" stop-color="#D6A2FB"/>
</linearGradient>
<linearGradient id="paint11_linear_1647_1592" x1="111.478" y1="54.8219" x2="115.826" y2="49.0319" gradientUnits="userSpaceOnUse">
<stop offset="0.08"/>
<stop offset="0.16" stop-color="#060606"/>
<stop offset="0.27" stop-color="#191919"/>
<stop offset="0.41" stop-color="#393939"/>
<stop offset="0.56" stop-color="#646464"/>
<stop offset="0.73" stop-color="#9C9C9C"/>
<stop offset="0.9" stop-color="#DFDFDF"/>
<stop offset="0.98" stop-color="white"/>
</linearGradient>
<linearGradient id="paint12_linear_1647_1592" x1="81.9522" y1="49.9188" x2="88.6926" y2="35.7006" gradientUnits="userSpaceOnUse">
<stop offset="0.08" stop-color="#568460"/>
<stop offset="0.7" stop-color="#80CC82"/>
</linearGradient>
<linearGradient id="paint13_linear_1647_1592" x1="83.2602" y1="37.7666" x2="82.9615" y2="45.0034" gradientUnits="userSpaceOnUse">
<stop offset="0.26" stop-color="white"/>
<stop offset="0.5" stop-color="#A1A1A1"/>
<stop offset="0.75" stop-color="#4A4A4A"/>
<stop offset="0.92" stop-color="#141414"/>
<stop offset="1"/>
</linearGradient>
<linearGradient id="paint14_linear_1647_1592" x1="94.9962" y1="41.6259" x2="92.2163" y2="45.3653" gradientUnits="userSpaceOnUse">
<stop offset="0.26" stop-color="white"/>
<stop offset="0.31" stop-color="#D9D9D9"/>
<stop offset="0.38" stop-color="#A6A6A6"/>
<stop offset="0.45" stop-color="#7A7A7A"/>
<stop offset="0.53" stop-color="#545454"/>
<stop offset="0.61" stop-color="#353535"/>
<stop offset="0.69" stop-color="#1D1D1D"/>
<stop offset="0.78" stop-color="#0D0D0D"/>
<stop offset="0.88" stop-color="#030303"/>
<stop offset="1"/>
</linearGradient>
<linearGradient id="paint15_linear_1647_1592" x1="26.724" y1="31.5471" x2="81.3075" y2="2.50312" gradientUnits="userSpaceOnUse">
<stop offset="0.08" stop-color="#568460"/>
<stop offset="0.7" stop-color="#80CC82"/>
</linearGradient>
<linearGradient id="paint16_linear_1647_1592" x1="53.3371" y1="18.9267" x2="57.9501" y2="14.8753" gradientUnits="userSpaceOnUse">
<stop offset="0.08" stop-color="#568460"/>
<stop offset="0.7" stop-color="#80CC82"/>
</linearGradient>
<linearGradient id="paint17_linear_1647_1592" x1="114.834" y1="39.257" x2="113.98" y2="23.2276" gradientUnits="userSpaceOnUse">
<stop stop-color="#653B2F"/>
<stop offset="1" stop-color="#E38460"/>
</linearGradient>
<linearGradient id="paint18_linear_1647_1592" x1="116.785" y1="33.8407" x2="117.521" y2="22.9038" gradientUnits="userSpaceOnUse">
<stop/>
<stop offset="1" stop-color="#E38460"/>
</linearGradient>
<linearGradient id="paint19_linear_1647_1592" x1="117.28" y1="33.9992" x2="116.817" y2="25.3404" gradientUnits="userSpaceOnUse">
<stop/>
<stop offset="1" stop-color="#E38460"/>
</linearGradient>
<linearGradient id="paint20_linear_1647_1592" x1="100.076" y1="92.5064" x2="90.0033" y2="88.8699" gradientUnits="userSpaceOnUse">
<stop stop-color="#E38460"/>
<stop offset="1" stop-color="#F3D398"/>
</linearGradient>
<linearGradient id="paint21_linear_1647_1592" x1="103.142" y1="53.7839" x2="109.793" y2="56.185" gradientUnits="userSpaceOnUse">
<stop stop-color="white"/>
<stop offset="1" stop-color="#D8CFB9"/>
</linearGradient>
<linearGradient id="paint22_linear_1647_1592" x1="109.022" y1="39.6998" x2="114.305" y2="41.606" gradientUnits="userSpaceOnUse">
<stop stop-color="white"/>
<stop offset="1" stop-color="#D8CFB9"/>
</linearGradient>
<linearGradient id="paint23_linear_1647_1592" x1="102.018" y1="67.3884" x2="101.427" y2="69.0264" gradientUnits="userSpaceOnUse">
<stop stop-color="white"/>
<stop offset="1" stop-color="#D8CFB9"/>
</linearGradient>
<linearGradient id="paint24_linear_1647_1592" x1="101.221" y1="66.1814" x2="109.509" y2="43.2235" gradientUnits="userSpaceOnUse">
<stop offset="0.08"/>
<stop offset="0.11" stop-color="#161616"/>
<stop offset="0.2" stop-color="#535353"/>
<stop offset="0.28" stop-color="#878787"/>
<stop offset="0.37" stop-color="#B2B2B2"/>
<stop offset="0.45" stop-color="#D3D3D3"/>
<stop offset="0.53" stop-color="#EBEBEB"/>
<stop offset="0.6" stop-color="#FAFAFA"/>
<stop offset="0.66" stop-color="white"/>
<stop offset="0.77" stop-color="#FCFCFC"/>
<stop offset="0.82" stop-color="#F5F5F5"/>
<stop offset="0.85" stop-color="#E9E9E9"/>
<stop offset="0.88" stop-color="#D7D7D7"/>
<stop offset="0.91" stop-color="#C0C0C0"/>
<stop offset="0.93" stop-color="#A4A4A4"/>
<stop offset="0.95" stop-color="#828282"/>
<stop offset="0.97" stop-color="#5B5B5B"/>
<stop offset="0.98" stop-color="#303030"/>
<stop offset="1"/>
</linearGradient>
<linearGradient id="paint25_linear_1647_1592" x1="96.4807" y1="21.9917" x2="106.608" y2="23.2675" gradientUnits="userSpaceOnUse">
<stop stop-color="#653B2F"/>
<stop offset="1" stop-color="#E38460"/>
</linearGradient>
<linearGradient id="paint26_linear_1647_1592" x1="105.575" y1="27.2165" x2="104.533" y2="18.8934" gradientUnits="userSpaceOnUse">
<stop/>
<stop offset="1" stop-color="#E38460"/>
</linearGradient>
<linearGradient id="paint27_linear_1647_1592" x1="104.802" y1="26.3484" x2="103.761" y2="18.0258" gradientUnits="userSpaceOnUse">
<stop/>
<stop offset="1" stop-color="#E38460"/>
</linearGradient>
<linearGradient id="paint28_linear_1647_1592" x1="103.854" y1="24.6296" x2="102.811" y2="16.3065" gradientUnits="userSpaceOnUse">
<stop/>
<stop offset="1" stop-color="#E38460"/>
</linearGradient>
<linearGradient id="paint29_linear_1647_1592" x1="97.5174" y1="83.6671" x2="90.6641" y2="82.8038" gradientUnits="userSpaceOnUse">
<stop stop-color="#E38460"/>
<stop offset="1" stop-color="#F3D398"/>
</linearGradient>
<linearGradient id="paint30_linear_1647_1592" x1="93.1224" y1="46.5951" x2="103.756" y2="47.9347" gradientUnits="userSpaceOnUse">
<stop stop-color="white"/>
<stop offset="1" stop-color="#D8CFB9"/>
</linearGradient>
<linearGradient id="paint31_linear_1647_1592" x1="96.9417" y1="59.1379" x2="96.6379" y2="61.5499" gradientUnits="userSpaceOnUse">
<stop stop-color="white"/>
<stop offset="1" stop-color="#D8CFB9"/>
</linearGradient>
<linearGradient id="paint32_linear_1647_1592" x1="97.229" y1="56.8526" x2="96.9491" y2="59.0743" gradientUnits="userSpaceOnUse">
<stop stop-color="white"/>
<stop offset="1" stop-color="#D8CFB9"/>
</linearGradient>
<linearGradient id="paint33_linear_1647_1592" x1="100.851" y1="28.27" x2="100.288" y2="32.7413" gradientUnits="userSpaceOnUse">
<stop stop-color="white"/>
<stop offset="1" stop-color="#D8CFB9"/>
</linearGradient>
<linearGradient id="paint34_linear_1647_1592" x1="95.2963" y1="56.8072" x2="98.3206" y2="32.8001" gradientUnits="userSpaceOnUse">
<stop offset="0.08"/>
<stop offset="0.11" stop-color="#161616"/>
<stop offset="0.2" stop-color="#535353"/>
<stop offset="0.28" stop-color="#878787"/>
<stop offset="0.37" stop-color="#B2B2B2"/>
<stop offset="0.45" stop-color="#D3D3D3"/>
<stop offset="0.53" stop-color="#EBEBEB"/>
<stop offset="0.6" stop-color="#FAFAFA"/>
<stop offset="0.66" stop-color="white"/>
<stop offset="0.77" stop-color="#FCFCFC"/>
<stop offset="0.82" stop-color="#F5F5F5"/>
<stop offset="0.85" stop-color="#E9E9E9"/>
<stop offset="0.88" stop-color="#D7D7D7"/>
<stop offset="0.91" stop-color="#C0C0C0"/>
<stop offset="0.93" stop-color="#A4A4A4"/>
<stop offset="0.95" stop-color="#828282"/>
<stop offset="0.97" stop-color="#5B5B5B"/>
<stop offset="0.98" stop-color="#303030"/>
<stop offset="1"/>
</linearGradient>
<linearGradient id="paint35_linear_1647_1592" x1="17.5791" y1="84.8094" x2="41.1509" y2="66.0588" gradientUnits="userSpaceOnUse">
<stop offset="0.08" stop-color="#E38460"/>
<stop offset="0.7" stop-color="#E17560"/>
</linearGradient>
<linearGradient id="paint36_linear_1647_1592" x1="23.452" y1="71.6992" x2="25.0534" y2="70.5634" gradientUnits="userSpaceOnUse">
<stop offset="0.08" stop-color="#E38460"/>
<stop offset="0.7" stop-color="#E17560"/>
</linearGradient>
<linearGradient id="paint37_linear_1647_1592" x1="32.1927" y1="83.406" x2="33.8683" y2="82.8797" gradientUnits="userSpaceOnUse">
<stop offset="0.08" stop-color="#E38460"/>
<stop offset="0.7" stop-color="#E17560"/>
</linearGradient>
<linearGradient id="paint38_linear_1647_1592" x1="36.1525" y1="46.0841" x2="47.9064" y2="55.4339" gradientUnits="userSpaceOnUse">
<stop offset="0.08" stop-color="#E38460"/>
<stop offset="0.7" stop-color="#E17560"/>
</linearGradient>
<linearGradient id="paint39_linear_1647_1592" x1="39.0808" y1="52.6215" x2="39.8793" y2="53.1879" gradientUnits="userSpaceOnUse">
<stop offset="0.08" stop-color="#E38460"/>
<stop offset="0.7" stop-color="#E17560"/>
</linearGradient>
<linearGradient id="paint40_linear_1647_1592" x1="43.4397" y1="46.7842" x2="44.2752" y2="47.0466" gradientUnits="userSpaceOnUse">
<stop offset="0.08" stop-color="#E38460"/>
<stop offset="0.7" stop-color="#E17560"/>
</linearGradient>
<linearGradient id="paint41_linear_1647_1592" x1="108.265" y1="47.3297" x2="162.212" y2="16.9064" gradientUnits="userSpaceOnUse">
<stop offset="0.08" stop-color="#EAAC64"/>
<stop offset="0.52" stop-color="#F6E251"/>
</linearGradient>
<linearGradient id="paint42_linear_1647_1592" x1="124.282" y1="99.4136" x2="150.372" y2="85.2849" gradientUnits="userSpaceOnUse">
<stop offset="0.08" stop-color="#EAAC64"/>
<stop offset="0.52" stop-color="#F6E251"/>
</linearGradient>
<linearGradient id="paint43_linear_1647_1592" x1="121.149" y1="28.9108" x2="175.096" y2="-1.51251" gradientUnits="userSpaceOnUse">
<stop offset="0.09" stop-color="white"/>
<stop offset="0.52" stop-color="#F6E251"/>
</linearGradient>
<linearGradient id="paint44_linear_1647_1592" x1="130.722" y1="45.8876" x2="184.67" y2="15.4645" gradientUnits="userSpaceOnUse">
<stop offset="0.09" stop-color="white"/>
<stop offset="0.52" stop-color="#F6E251"/>
</linearGradient>
<linearGradient id="paint45_linear_1647_1592" x1="116.89" y1="149.842" x2="135.393" y2="105.345" gradientUnits="userSpaceOnUse">
<stop offset="0.08" stop-color="#5574BA"/>
<stop offset="0.2" stop-color="#5D7CC0"/>
<stop offset="0.4" stop-color="#7595D1"/>
<stop offset="0.65" stop-color="#9CBCEE"/>
<stop offset="0.75" stop-color="#AFD0FC"/>
</linearGradient>
<linearGradient id="paint46_linear_1647_1592" x1="115.966" y1="132.376" x2="134.471" y2="87.8795" gradientUnits="userSpaceOnUse">
<stop offset="0.08" stop-color="#5574BA"/>
<stop offset="0.2" stop-color="#5D7CC0"/>
<stop offset="0.4" stop-color="#7595D1"/>
<stop offset="0.65" stop-color="#9CBCEE"/>
<stop offset="0.75" stop-color="#AFD0FC"/>
</linearGradient>
<linearGradient id="paint47_linear_1647_1592" x1="129.969" y1="138.198" x2="148.473" y2="93.7028" gradientUnits="userSpaceOnUse">
<stop offset="0.08" stop-color="#5574BA"/>
<stop offset="0.2" stop-color="#5D7CC0"/>
<stop offset="0.4" stop-color="#7595D1"/>
<stop offset="0.65" stop-color="#9CBCEE"/>
<stop offset="0.75" stop-color="#AFD0FC"/>
</linearGradient>
<linearGradient id="paint48_linear_1647_1592" x1="45.4095" y1="137.402" x2="56.7375" y2="110.158" gradientUnits="userSpaceOnUse">
<stop offset="0.08" stop-color="#5574BA"/>
<stop offset="0.2" stop-color="#5D7CC0"/>
<stop offset="0.4" stop-color="#7595D1"/>
<stop offset="0.65" stop-color="#9CBCEE"/>
<stop offset="0.75" stop-color="#AFD0FC"/>
</linearGradient>
<linearGradient id="paint49_linear_1647_1592" x1="44.8431" y1="126.709" x2="56.173" y2="99.4659" gradientUnits="userSpaceOnUse">
<stop offset="0.08" stop-color="#5574BA"/>
<stop offset="0.2" stop-color="#5D7CC0"/>
<stop offset="0.4" stop-color="#7595D1"/>
<stop offset="0.65" stop-color="#9CBCEE"/>
<stop offset="0.75" stop-color="#AFD0FC"/>
</linearGradient>
<linearGradient id="paint50_linear_1647_1592" x1="53.417" y1="130.273" x2="64.7458" y2="103.031" gradientUnits="userSpaceOnUse">
<stop offset="0.08" stop-color="#5574BA"/>
<stop offset="0.2" stop-color="#5D7CC0"/>
<stop offset="0.4" stop-color="#7595D1"/>
<stop offset="0.65" stop-color="#9CBCEE"/>
<stop offset="0.75" stop-color="#AFD0FC"/>
</linearGradient>
</defs>
</svg>
